<svg xmlns="http://www.w3.org/2000/svg" width="363" height="274" viewBox="0 0 363 274">
  <g id="Group_1" data-name="Group 1" transform="translate(-618 -449)">
    <circle id="Ellipse_2" data-name="Ellipse 2" cx="4.5" cy="4.5" r="4.5" transform="translate(618 449)" fill="#24b855"/>
    <circle id="Ellipse_2-2" data-name="Ellipse 2" cx="4.5" cy="4.5" r="4.5" transform="translate(662 449)" fill="#24b855"/>
    <circle id="Ellipse_2-3" data-name="Ellipse 2" cx="4.5" cy="4.5" r="4.5" transform="translate(706 449)" fill="#24b855"/>
    <ellipse id="Ellipse_2-4" data-name="Ellipse 2" cx="4" cy="4.5" rx="4" ry="4.5" transform="translate(751 449)" fill="#24b855"/>
    <circle id="Ellipse_2-5" data-name="Ellipse 2" cx="4.5" cy="4.5" r="4.5" transform="translate(795 449)" fill="#24b855"/>
    <circle id="Ellipse_2-6" data-name="Ellipse 2" cx="4.5" cy="4.5" r="4.5" transform="translate(839 449)" fill="#24b855"/>
    <circle id="Ellipse_2-7" data-name="Ellipse 2" cx="4.5" cy="4.5" r="4.5" transform="translate(883 449)" fill="#24b855"/>
    <circle id="Ellipse_2-8" data-name="Ellipse 2" cx="4.5" cy="4.5" r="4.5" transform="translate(927 449)" fill="#24b855"/>
    <circle id="Ellipse_2-9" data-name="Ellipse 2" cx="4.5" cy="4.5" r="4.5" transform="translate(972 449)" fill="#24b855"/>
    <circle id="Ellipse_2-10" data-name="Ellipse 2" cx="4.5" cy="4.5" r="4.5" transform="translate(618 493)" fill="#24b855"/>
    <circle id="Ellipse_2-11" data-name="Ellipse 2" cx="4.5" cy="4.5" r="4.5" transform="translate(662 493)" fill="#24b855"/>
    <circle id="Ellipse_2-12" data-name="Ellipse 2" cx="4.5" cy="4.5" r="4.5" transform="translate(706 493)" fill="#24b855"/>
    <ellipse id="Ellipse_2-13" data-name="Ellipse 2" cx="4" cy="4.5" rx="4" ry="4.5" transform="translate(751 493)" fill="#24b855"/>
    <circle id="Ellipse_2-14" data-name="Ellipse 2" cx="4.5" cy="4.5" r="4.5" transform="translate(795 493)" fill="#24b855"/>
    <circle id="Ellipse_2-15" data-name="Ellipse 2" cx="4.5" cy="4.5" r="4.5" transform="translate(839 493)" fill="#24b855"/>
    <circle id="Ellipse_2-16" data-name="Ellipse 2" cx="4.5" cy="4.5" r="4.5" transform="translate(883 493)" fill="#24b855"/>
    <circle id="Ellipse_2-17" data-name="Ellipse 2" cx="4.5" cy="4.5" r="4.5" transform="translate(927 493)" fill="#24b855"/>
    <circle id="Ellipse_2-18" data-name="Ellipse 2" cx="4.5" cy="4.5" r="4.5" transform="translate(972 493)" fill="#24b855"/>
    <circle id="Ellipse_2-19" data-name="Ellipse 2" cx="4.5" cy="4.5" r="4.5" transform="translate(618 537)" fill="#24b855"/>
    <circle id="Ellipse_2-20" data-name="Ellipse 2" cx="4.5" cy="4.5" r="4.5" transform="translate(662 537)" fill="#24b855"/>
    <circle id="Ellipse_2-21" data-name="Ellipse 2" cx="4.5" cy="4.5" r="4.5" transform="translate(706 537)" fill="#24b855"/>
    <ellipse id="Ellipse_2-22" data-name="Ellipse 2" cx="4" cy="4.5" rx="4" ry="4.5" transform="translate(751 537)" fill="#24b855"/>
    <circle id="Ellipse_2-23" data-name="Ellipse 2" cx="4.5" cy="4.5" r="4.5" transform="translate(795 537)" fill="#24b855"/>
    <circle id="Ellipse_2-24" data-name="Ellipse 2" cx="4.5" cy="4.5" r="4.5" transform="translate(839 537)" fill="#24b855"/>
    <circle id="Ellipse_2-25" data-name="Ellipse 2" cx="4.5" cy="4.5" r="4.5" transform="translate(883 537)" fill="#24b855"/>
    <circle id="Ellipse_2-26" data-name="Ellipse 2" cx="4.5" cy="4.5" r="4.5" transform="translate(927 537)" fill="#24b855"/>
    <circle id="Ellipse_2-27" data-name="Ellipse 2" cx="4.5" cy="4.5" r="4.5" transform="translate(972 537)" fill="#24b855"/>
    <ellipse id="Ellipse_2-28" data-name="Ellipse 2" cx="4.5" cy="4" rx="4.5" ry="4" transform="translate(618 582)" fill="#24b855"/>
    <ellipse id="Ellipse_2-29" data-name="Ellipse 2" cx="4.5" cy="4" rx="4.5" ry="4" transform="translate(662 582)" fill="#24b855"/>
    <ellipse id="Ellipse_2-30" data-name="Ellipse 2" cx="4.5" cy="4" rx="4.5" ry="4" transform="translate(706 582)" fill="#24b855"/>
    <circle id="Ellipse_2-31" data-name="Ellipse 2" cx="4" cy="4" r="4" transform="translate(751 582)" fill="#24b855"/>
    <ellipse id="Ellipse_2-32" data-name="Ellipse 2" cx="4.5" cy="4" rx="4.5" ry="4" transform="translate(795 582)" fill="#24b855"/>
    <ellipse id="Ellipse_2-33" data-name="Ellipse 2" cx="4.5" cy="4" rx="4.5" ry="4" transform="translate(839 582)" fill="#24b855"/>
    <ellipse id="Ellipse_2-34" data-name="Ellipse 2" cx="4.5" cy="4" rx="4.5" ry="4" transform="translate(883 582)" fill="#24b855"/>
    <ellipse id="Ellipse_2-35" data-name="Ellipse 2" cx="4.5" cy="4" rx="4.5" ry="4" transform="translate(927 582)" fill="#24b855"/>
    <ellipse id="Ellipse_2-36" data-name="Ellipse 2" cx="4.5" cy="4" rx="4.5" ry="4" transform="translate(972 582)" fill="#24b855"/>
    <circle id="Ellipse_2-37" data-name="Ellipse 2" cx="4.5" cy="4.5" r="4.5" transform="translate(618 626)" fill="#24b855"/>
    <circle id="Ellipse_2-38" data-name="Ellipse 2" cx="4.5" cy="4.5" r="4.5" transform="translate(662 626)" fill="#24b855"/>
    <circle id="Ellipse_2-39" data-name="Ellipse 2" cx="4.5" cy="4.5" r="4.5" transform="translate(706 626)" fill="#24b855"/>
    <ellipse id="Ellipse_2-40" data-name="Ellipse 2" cx="4" cy="4.5" rx="4" ry="4.5" transform="translate(751 626)" fill="#24b855"/>
    <circle id="Ellipse_2-41" data-name="Ellipse 2" cx="4.5" cy="4.5" r="4.5" transform="translate(795 626)" fill="#24b855"/>
    <circle id="Ellipse_2-42" data-name="Ellipse 2" cx="4.5" cy="4.5" r="4.5" transform="translate(839 626)" fill="#24b855"/>
    <circle id="Ellipse_2-43" data-name="Ellipse 2" cx="4.5" cy="4.5" r="4.5" transform="translate(883 626)" fill="#24b855"/>
    <circle id="Ellipse_2-44" data-name="Ellipse 2" cx="4.5" cy="4.5" r="4.5" transform="translate(927 626)" fill="#24b855"/>
    <circle id="Ellipse_2-45" data-name="Ellipse 2" cx="4.5" cy="4.5" r="4.5" transform="translate(972 626)" fill="#24b855"/>
    <circle id="Ellipse_2-46" data-name="Ellipse 2" cx="4.5" cy="4.5" r="4.5" transform="translate(618 670)" fill="#24b855"/>
    <circle id="Ellipse_2-47" data-name="Ellipse 2" cx="4.5" cy="4.5" r="4.5" transform="translate(662 670)" fill="#24b855"/>
    <circle id="Ellipse_2-48" data-name="Ellipse 2" cx="4.5" cy="4.5" r="4.5" transform="translate(706 670)" fill="#24b855"/>
    <ellipse id="Ellipse_2-49" data-name="Ellipse 2" cx="4" cy="4.5" rx="4" ry="4.5" transform="translate(751 670)" fill="#24b855"/>
    <circle id="Ellipse_2-50" data-name="Ellipse 2" cx="4.5" cy="4.5" r="4.5" transform="translate(795 670)" fill="#24b855"/>
    <circle id="Ellipse_2-51" data-name="Ellipse 2" cx="4.5" cy="4.5" r="4.5" transform="translate(839 670)" fill="#24b855"/>
    <circle id="Ellipse_2-52" data-name="Ellipse 2" cx="4.5" cy="4.5" r="4.5" transform="translate(883 670)" fill="#24b855"/>
    <circle id="Ellipse_2-53" data-name="Ellipse 2" cx="4.5" cy="4.5" r="4.5" transform="translate(927 670)" fill="#24b855"/>
    <circle id="Ellipse_2-54" data-name="Ellipse 2" cx="4.5" cy="4.5" r="4.5" transform="translate(972 670)" fill="#24b855"/>
    <circle id="Ellipse_2-55" data-name="Ellipse 2" cx="4.5" cy="4.5" r="4.5" transform="translate(618 714)" fill="#24b855"/>
    <circle id="Ellipse_2-56" data-name="Ellipse 2" cx="4.5" cy="4.5" r="4.5" transform="translate(662 714)" fill="#24b855"/>
    <circle id="Ellipse_2-57" data-name="Ellipse 2" cx="4.5" cy="4.5" r="4.5" transform="translate(706 714)" fill="#24b855"/>
    <ellipse id="Ellipse_2-58" data-name="Ellipse 2" cx="4" cy="4.5" rx="4" ry="4.5" transform="translate(751 714)" fill="#24b855"/>
    <circle id="Ellipse_2-59" data-name="Ellipse 2" cx="4.5" cy="4.5" r="4.5" transform="translate(795 714)" fill="#24b855"/>
    <circle id="Ellipse_2-60" data-name="Ellipse 2" cx="4.5" cy="4.5" r="4.5" transform="translate(839 714)" fill="#24b855"/>
    <circle id="Ellipse_2-61" data-name="Ellipse 2" cx="4.5" cy="4.5" r="4.5" transform="translate(883 714)" fill="#24b855"/>
    <circle id="Ellipse_2-62" data-name="Ellipse 2" cx="4.5" cy="4.5" r="4.5" transform="translate(927 714)" fill="#24b855"/>
    <circle id="Ellipse_2-63" data-name="Ellipse 2" cx="4.5" cy="4.5" r="4.5" transform="translate(972 714)" fill="#24b855"/>
  </g>
</svg>
