<svg xmlns="http://www.w3.org/2000/svg" width="205" height="155" viewBox="0 0 205 155">
  <g id="Group_1" data-name="Group 1" transform="translate(-618 -449)">
    <circle id="Ellipse_2" data-name="Ellipse 2" cx="2.5" cy="2.5" r="2.5" transform="translate(618 449)" fill="#24b855"/>
    <circle id="Ellipse_2-2" data-name="Ellipse 2" cx="2.5" cy="2.5" r="2.5" transform="translate(643 449)" fill="#24b855"/>
    <circle id="Ellipse_2-3" data-name="Ellipse 2" cx="2.5" cy="2.5" r="2.5" transform="translate(668 449)" fill="#24b855"/>
    <circle id="Ellipse_2-4" data-name="Ellipse 2" cx="2.5" cy="2.5" r="2.5" transform="translate(693 449)" fill="#24b855"/>
    <circle id="Ellipse_2-5" data-name="Ellipse 2" cx="2.5" cy="2.5" r="2.5" transform="translate(718 449)" fill="#24b855"/>
    <circle id="Ellipse_2-6" data-name="Ellipse 2" cx="2.5" cy="2.5" r="2.5" transform="translate(743 449)" fill="#24b855"/>
    <circle id="Ellipse_2-7" data-name="Ellipse 2" cx="2.5" cy="2.5" r="2.5" transform="translate(768 449)" fill="#24b855"/>
    <circle id="Ellipse_2-8" data-name="Ellipse 2" cx="2.5" cy="2.5" r="2.5" transform="translate(793 449)" fill="#24b855"/>
    <circle id="Ellipse_2-9" data-name="Ellipse 2" cx="2.5" cy="2.5" r="2.5" transform="translate(818 449)" fill="#24b855"/>
    <circle id="Ellipse_2-10" data-name="Ellipse 2" cx="2.5" cy="2.5" r="2.5" transform="translate(618 474)" fill="#24b855"/>
    <circle id="Ellipse_2-11" data-name="Ellipse 2" cx="2.5" cy="2.5" r="2.5" transform="translate(643 474)" fill="#24b855"/>
    <circle id="Ellipse_2-12" data-name="Ellipse 2" cx="2.5" cy="2.5" r="2.5" transform="translate(668 474)" fill="#24b855"/>
    <circle id="Ellipse_2-13" data-name="Ellipse 2" cx="2.5" cy="2.5" r="2.5" transform="translate(693 474)" fill="#24b855"/>
    <circle id="Ellipse_2-14" data-name="Ellipse 2" cx="2.5" cy="2.5" r="2.5" transform="translate(718 474)" fill="#24b855"/>
    <circle id="Ellipse_2-15" data-name="Ellipse 2" cx="2.5" cy="2.5" r="2.5" transform="translate(743 474)" fill="#24b855"/>
    <circle id="Ellipse_2-16" data-name="Ellipse 2" cx="2.5" cy="2.5" r="2.5" transform="translate(768 474)" fill="#24b855"/>
    <circle id="Ellipse_2-17" data-name="Ellipse 2" cx="2.5" cy="2.5" r="2.5" transform="translate(793 474)" fill="#24b855"/>
    <circle id="Ellipse_2-18" data-name="Ellipse 2" cx="2.5" cy="2.5" r="2.5" transform="translate(818 474)" fill="#24b855"/>
    <circle id="Ellipse_2-19" data-name="Ellipse 2" cx="2.5" cy="2.5" r="2.5" transform="translate(618 499)" fill="#24b855"/>
    <circle id="Ellipse_2-20" data-name="Ellipse 2" cx="2.5" cy="2.5" r="2.5" transform="translate(643 499)" fill="#24b855"/>
    <circle id="Ellipse_2-21" data-name="Ellipse 2" cx="2.5" cy="2.5" r="2.5" transform="translate(668 499)" fill="#24b855"/>
    <circle id="Ellipse_2-22" data-name="Ellipse 2" cx="2.5" cy="2.5" r="2.5" transform="translate(693 499)" fill="#24b855"/>
    <circle id="Ellipse_2-23" data-name="Ellipse 2" cx="2.5" cy="2.5" r="2.5" transform="translate(718 499)" fill="#24b855"/>
    <circle id="Ellipse_2-24" data-name="Ellipse 2" cx="2.5" cy="2.5" r="2.5" transform="translate(743 499)" fill="#24b855"/>
    <circle id="Ellipse_2-25" data-name="Ellipse 2" cx="2.5" cy="2.5" r="2.5" transform="translate(768 499)" fill="#24b855"/>
    <circle id="Ellipse_2-26" data-name="Ellipse 2" cx="2.5" cy="2.5" r="2.5" transform="translate(793 499)" fill="#24b855"/>
    <circle id="Ellipse_2-27" data-name="Ellipse 2" cx="2.5" cy="2.5" r="2.5" transform="translate(818 499)" fill="#24b855"/>
    <circle id="Ellipse_2-28" data-name="Ellipse 2" cx="2.5" cy="2.5" r="2.5" transform="translate(618 524)" fill="#24b855"/>
    <circle id="Ellipse_2-29" data-name="Ellipse 2" cx="2.5" cy="2.5" r="2.5" transform="translate(643 524)" fill="#24b855"/>
    <circle id="Ellipse_2-30" data-name="Ellipse 2" cx="2.5" cy="2.5" r="2.5" transform="translate(668 524)" fill="#24b855"/>
    <circle id="Ellipse_2-31" data-name="Ellipse 2" cx="2.5" cy="2.5" r="2.5" transform="translate(693 524)" fill="#24b855"/>
    <circle id="Ellipse_2-32" data-name="Ellipse 2" cx="2.5" cy="2.5" r="2.5" transform="translate(718 524)" fill="#24b855"/>
    <circle id="Ellipse_2-33" data-name="Ellipse 2" cx="2.5" cy="2.5" r="2.5" transform="translate(743 524)" fill="#24b855"/>
    <circle id="Ellipse_2-34" data-name="Ellipse 2" cx="2.5" cy="2.5" r="2.5" transform="translate(768 524)" fill="#24b855"/>
    <circle id="Ellipse_2-35" data-name="Ellipse 2" cx="2.5" cy="2.5" r="2.5" transform="translate(793 524)" fill="#24b855"/>
    <circle id="Ellipse_2-36" data-name="Ellipse 2" cx="2.5" cy="2.5" r="2.5" transform="translate(818 524)" fill="#24b855"/>
    <circle id="Ellipse_2-37" data-name="Ellipse 2" cx="2.5" cy="2.5" r="2.5" transform="translate(618 549)" fill="#24b855"/>
    <circle id="Ellipse_2-38" data-name="Ellipse 2" cx="2.5" cy="2.5" r="2.5" transform="translate(643 549)" fill="#24b855"/>
    <circle id="Ellipse_2-39" data-name="Ellipse 2" cx="2.5" cy="2.5" r="2.5" transform="translate(668 549)" fill="#24b855"/>
    <circle id="Ellipse_2-40" data-name="Ellipse 2" cx="2.5" cy="2.5" r="2.5" transform="translate(693 549)" fill="#24b855"/>
    <circle id="Ellipse_2-41" data-name="Ellipse 2" cx="2.5" cy="2.5" r="2.5" transform="translate(718 549)" fill="#24b855"/>
    <circle id="Ellipse_2-42" data-name="Ellipse 2" cx="2.5" cy="2.5" r="2.5" transform="translate(743 549)" fill="#24b855"/>
    <circle id="Ellipse_2-43" data-name="Ellipse 2" cx="2.5" cy="2.5" r="2.5" transform="translate(768 549)" fill="#24b855"/>
    <circle id="Ellipse_2-44" data-name="Ellipse 2" cx="2.5" cy="2.5" r="2.5" transform="translate(793 549)" fill="#24b855"/>
    <circle id="Ellipse_2-45" data-name="Ellipse 2" cx="2.5" cy="2.5" r="2.5" transform="translate(818 549)" fill="#24b855"/>
    <circle id="Ellipse_2-46" data-name="Ellipse 2" cx="2.5" cy="2.5" r="2.5" transform="translate(618 574)" fill="#24b855"/>
    <circle id="Ellipse_2-47" data-name="Ellipse 2" cx="2.5" cy="2.5" r="2.5" transform="translate(643 574)" fill="#24b855"/>
    <circle id="Ellipse_2-48" data-name="Ellipse 2" cx="2.5" cy="2.5" r="2.5" transform="translate(668 574)" fill="#24b855"/>
    <circle id="Ellipse_2-49" data-name="Ellipse 2" cx="2.5" cy="2.5" r="2.5" transform="translate(693 574)" fill="#24b855"/>
    <circle id="Ellipse_2-50" data-name="Ellipse 2" cx="2.5" cy="2.5" r="2.5" transform="translate(718 574)" fill="#24b855"/>
    <circle id="Ellipse_2-51" data-name="Ellipse 2" cx="2.5" cy="2.5" r="2.5" transform="translate(743 574)" fill="#24b855"/>
    <circle id="Ellipse_2-52" data-name="Ellipse 2" cx="2.5" cy="2.5" r="2.5" transform="translate(768 574)" fill="#24b855"/>
    <circle id="Ellipse_2-53" data-name="Ellipse 2" cx="2.5" cy="2.5" r="2.5" transform="translate(793 574)" fill="#24b855"/>
    <circle id="Ellipse_2-54" data-name="Ellipse 2" cx="2.5" cy="2.5" r="2.5" transform="translate(818 574)" fill="#24b855"/>
    <circle id="Ellipse_2-55" data-name="Ellipse 2" cx="2.5" cy="2.5" r="2.5" transform="translate(618 599)" fill="#24b855"/>
    <circle id="Ellipse_2-56" data-name="Ellipse 2" cx="2.5" cy="2.5" r="2.5" transform="translate(643 599)" fill="#24b855"/>
    <circle id="Ellipse_2-57" data-name="Ellipse 2" cx="2.5" cy="2.5" r="2.5" transform="translate(668 599)" fill="#24b855"/>
    <circle id="Ellipse_2-58" data-name="Ellipse 2" cx="2.5" cy="2.5" r="2.5" transform="translate(693 599)" fill="#24b855"/>
    <circle id="Ellipse_2-59" data-name="Ellipse 2" cx="2.5" cy="2.5" r="2.5" transform="translate(718 599)" fill="#24b855"/>
    <circle id="Ellipse_2-60" data-name="Ellipse 2" cx="2.5" cy="2.5" r="2.5" transform="translate(743 599)" fill="#24b855"/>
    <circle id="Ellipse_2-61" data-name="Ellipse 2" cx="2.5" cy="2.5" r="2.5" transform="translate(768 599)" fill="#24b855"/>
    <circle id="Ellipse_2-62" data-name="Ellipse 2" cx="2.5" cy="2.5" r="2.5" transform="translate(793 599)" fill="#24b855"/>
    <circle id="Ellipse_2-63" data-name="Ellipse 2" cx="2.5" cy="2.5" r="2.5" transform="translate(818 599)" fill="#24b855"/>
  </g>
</svg>
